<?xml version="1.0" encoding="UTF-8" standalone="no"?>
<svg
   height="40"
   width="40"
   version="1.1"
   id="svg7441"
   xmlns="http://www.w3.org/2000/svg"
   xmlns:svg="http://www.w3.org/2000/svg">
  <defs
     id="defs7445" />
  <path
     d="m 7.5,31.208 v -1.416 h 3.375 V 16.958 q 0,-3.333 2.104,-5.875 2.104,-2.541 5.396,-3.125 V 6.792 q 0,-0.75 0.458,-1.167 0.459,-0.417 1.167,-0.417 0.708,0 1.167,0.417 0.458,0.417 0.458,1.167 v 1.166 q 3.292,0.584 5.396,3.125 2.104,2.542 2.104,5.875 V 29.792 H 32.5 v 1.416 z M 20,19.625 Z m 0,16.417 q -1.083,0 -1.896,-0.771 -0.812,-0.771 -0.812,-1.938 h 5.416 q 0,1.167 -0.77,1.938 -0.771,0.771 -1.938,0.771 z m -7.708,-6.25 H 27.708 V 16.958 Q 27.708,13.75 25.479,11.5 23.25,9.25 20,9.25 q -3.208,0 -5.458,2.25 -2.25,2.25 -2.25,5.458 z"
     id="path7439"
     style="fill:#6a6d6b;fill-opacity:1" />
</svg>
